<mxfile host="Electron" modified="2024-07-06T14:42:38.201Z" agent="Mozilla/5.0 (Windows NT 10.0; Win64; x64) AppleWebKit/537.36 (KHTML, like Gecko) draw.io/24.4.13 Chrome/124.0.6367.207 Electron/30.0.6 Safari/537.36" etag="IjIGKDRGT--tlmeN3SKy" version="24.4.13" type="device">
  <diagram name="Page-1" id="Xse8WK59IOAnQLQ-py6_">
    <mxGraphModel dx="1669" dy="478" grid="1" gridSize="5" guides="0" tooltips="1" connect="0" arrows="0" fold="1" page="1" pageScale="1" pageWidth="850" pageHeight="1100" math="0" shadow="0">
      <root>
        <mxCell id="0" />
        <mxCell id="1" parent="0" />
        <mxCell id="wF1ciALJRRrJ7pzbPHmN-67" value="" style="ellipse;whiteSpace=wrap;html=1;fillColor=#00CC00;" vertex="1" parent="1">
          <mxGeometry x="-580" y="595" width="20" height="20" as="geometry" />
        </mxCell>
        <mxCell id="wF1ciALJRRrJ7pzbPHmN-83" value="" style="endArrow=none;html=1;rounded=0;" edge="1" parent="1">
          <mxGeometry width="50" height="50" relative="1" as="geometry">
            <mxPoint x="-580" y="625" as="sourcePoint" />
            <mxPoint x="-570" y="615" as="targetPoint" />
          </mxGeometry>
        </mxCell>
        <mxCell id="wF1ciALJRRrJ7pzbPHmN-85" value="" style="endArrow=none;html=1;rounded=0;" edge="1" parent="1">
          <mxGeometry width="50" height="50" relative="1" as="geometry">
            <mxPoint x="-560" y="625" as="sourcePoint" />
            <mxPoint x="-570" y="615" as="targetPoint" />
          </mxGeometry>
        </mxCell>
        <mxCell id="wF1ciALJRRrJ7pzbPHmN-86" value="..." style="text;html=1;align=center;verticalAlign=middle;whiteSpace=wrap;rounded=0;fontFamily=&quot;Latin Modern Mono 12&quot;;fontSize=12;fontStyle=1" vertex="1" parent="1">
          <mxGeometry x="-580" y="620" width="20" height="15" as="geometry" />
        </mxCell>
        <mxCell id="wF1ciALJRRrJ7pzbPHmN-103" value="" style="ellipse;whiteSpace=wrap;html=1;fillColor=#00CC00;" vertex="1" parent="1">
          <mxGeometry x="-455" y="595" width="20" height="20" as="geometry" />
        </mxCell>
        <mxCell id="wF1ciALJRRrJ7pzbPHmN-104" value="" style="endArrow=none;html=1;rounded=0;" edge="1" parent="1">
          <mxGeometry width="50" height="50" relative="1" as="geometry">
            <mxPoint x="-455" y="625" as="sourcePoint" />
            <mxPoint x="-445" y="615" as="targetPoint" />
          </mxGeometry>
        </mxCell>
        <mxCell id="wF1ciALJRRrJ7pzbPHmN-105" value="" style="endArrow=none;html=1;rounded=0;" edge="1" parent="1">
          <mxGeometry width="50" height="50" relative="1" as="geometry">
            <mxPoint x="-435" y="625" as="sourcePoint" />
            <mxPoint x="-445" y="615" as="targetPoint" />
          </mxGeometry>
        </mxCell>
        <mxCell id="wF1ciALJRRrJ7pzbPHmN-106" value="..." style="text;html=1;align=center;verticalAlign=middle;whiteSpace=wrap;rounded=0;fontFamily=&quot;Latin Modern Mono 12&quot;;fontSize=12;fontStyle=1" vertex="1" parent="1">
          <mxGeometry x="-455" y="620" width="20" height="15" as="geometry" />
        </mxCell>
        <mxCell id="wF1ciALJRRrJ7pzbPHmN-119" value="" style="ellipse;whiteSpace=wrap;html=1;" vertex="1" parent="1">
          <mxGeometry x="-755" y="595" width="20" height="20" as="geometry" />
        </mxCell>
        <mxCell id="wF1ciALJRRrJ7pzbPHmN-120" value="" style="endArrow=none;html=1;rounded=0;" edge="1" parent="1">
          <mxGeometry width="50" height="50" relative="1" as="geometry">
            <mxPoint x="-755" y="625" as="sourcePoint" />
            <mxPoint x="-745" y="615" as="targetPoint" />
          </mxGeometry>
        </mxCell>
        <mxCell id="wF1ciALJRRrJ7pzbPHmN-121" value="" style="endArrow=none;html=1;rounded=0;" edge="1" parent="1">
          <mxGeometry width="50" height="50" relative="1" as="geometry">
            <mxPoint x="-735" y="625" as="sourcePoint" />
            <mxPoint x="-745" y="615" as="targetPoint" />
          </mxGeometry>
        </mxCell>
        <mxCell id="wF1ciALJRRrJ7pzbPHmN-122" value="..." style="text;html=1;align=center;verticalAlign=middle;whiteSpace=wrap;rounded=0;fontFamily=&quot;Latin Modern Mono 12&quot;;fontSize=12;fontStyle=1" vertex="1" parent="1">
          <mxGeometry x="-755" y="620" width="20" height="15" as="geometry" />
        </mxCell>
        <mxCell id="wF1ciALJRRrJ7pzbPHmN-123" value="" style="ellipse;whiteSpace=wrap;html=1;fillColor=#00CC00;" vertex="1" parent="1">
          <mxGeometry x="-730" y="595" width="20" height="20" as="geometry" />
        </mxCell>
        <mxCell id="wF1ciALJRRrJ7pzbPHmN-124" value="" style="endArrow=none;html=1;rounded=0;" edge="1" parent="1">
          <mxGeometry width="50" height="50" relative="1" as="geometry">
            <mxPoint x="-730" y="625" as="sourcePoint" />
            <mxPoint x="-720" y="615" as="targetPoint" />
          </mxGeometry>
        </mxCell>
        <mxCell id="wF1ciALJRRrJ7pzbPHmN-125" value="" style="endArrow=none;html=1;rounded=0;" edge="1" parent="1">
          <mxGeometry width="50" height="50" relative="1" as="geometry">
            <mxPoint x="-710" y="625" as="sourcePoint" />
            <mxPoint x="-720" y="615" as="targetPoint" />
          </mxGeometry>
        </mxCell>
        <mxCell id="wF1ciALJRRrJ7pzbPHmN-126" value="..." style="text;html=1;align=center;verticalAlign=middle;whiteSpace=wrap;rounded=0;fontFamily=&quot;Latin Modern Mono 12&quot;;fontSize=12;fontStyle=1" vertex="1" parent="1">
          <mxGeometry x="-730" y="620" width="20" height="15" as="geometry" />
        </mxCell>
        <mxCell id="wF1ciALJRRrJ7pzbPHmN-127" value="" style="ellipse;whiteSpace=wrap;html=1;fillColor=#00CC00;" vertex="1" parent="1">
          <mxGeometry x="-705" y="595" width="20" height="20" as="geometry" />
        </mxCell>
        <mxCell id="wF1ciALJRRrJ7pzbPHmN-128" value="" style="endArrow=none;html=1;rounded=0;" edge="1" parent="1">
          <mxGeometry width="50" height="50" relative="1" as="geometry">
            <mxPoint x="-705" y="625" as="sourcePoint" />
            <mxPoint x="-695" y="615" as="targetPoint" />
          </mxGeometry>
        </mxCell>
        <mxCell id="wF1ciALJRRrJ7pzbPHmN-129" value="" style="endArrow=none;html=1;rounded=0;" edge="1" parent="1">
          <mxGeometry width="50" height="50" relative="1" as="geometry">
            <mxPoint x="-685" y="625" as="sourcePoint" />
            <mxPoint x="-695" y="615" as="targetPoint" />
          </mxGeometry>
        </mxCell>
        <mxCell id="wF1ciALJRRrJ7pzbPHmN-130" value="..." style="text;html=1;align=center;verticalAlign=middle;whiteSpace=wrap;rounded=0;fontFamily=&quot;Latin Modern Mono 12&quot;;fontSize=12;fontStyle=1" vertex="1" parent="1">
          <mxGeometry x="-705" y="620" width="20" height="15" as="geometry" />
        </mxCell>
        <mxCell id="wF1ciALJRRrJ7pzbPHmN-143" value="" style="ellipse;whiteSpace=wrap;html=1;fillColor=#00CC00;" vertex="1" parent="1">
          <mxGeometry x="-605" y="595" width="20" height="20" as="geometry" />
        </mxCell>
        <mxCell id="wF1ciALJRRrJ7pzbPHmN-144" value="" style="endArrow=none;html=1;rounded=0;" edge="1" parent="1">
          <mxGeometry width="50" height="50" relative="1" as="geometry">
            <mxPoint x="-605" y="625" as="sourcePoint" />
            <mxPoint x="-595" y="615" as="targetPoint" />
          </mxGeometry>
        </mxCell>
        <mxCell id="wF1ciALJRRrJ7pzbPHmN-145" value="" style="endArrow=none;html=1;rounded=0;" edge="1" parent="1">
          <mxGeometry width="50" height="50" relative="1" as="geometry">
            <mxPoint x="-585" y="625" as="sourcePoint" />
            <mxPoint x="-595" y="615" as="targetPoint" />
          </mxGeometry>
        </mxCell>
        <mxCell id="wF1ciALJRRrJ7pzbPHmN-146" value="..." style="text;html=1;align=center;verticalAlign=middle;whiteSpace=wrap;rounded=0;fontFamily=&quot;Latin Modern Mono 12&quot;;fontSize=12;fontStyle=1" vertex="1" parent="1">
          <mxGeometry x="-605" y="620" width="20" height="15" as="geometry" />
        </mxCell>
        <mxCell id="wF1ciALJRRrJ7pzbPHmN-147" value="" style="ellipse;whiteSpace=wrap;html=1;" vertex="1" parent="1">
          <mxGeometry x="-725" y="535" width="20" height="20" as="geometry" />
        </mxCell>
        <mxCell id="wF1ciALJRRrJ7pzbPHmN-148" value="" style="ellipse;whiteSpace=wrap;html=1;fillColor=#00CC00;" vertex="1" parent="1">
          <mxGeometry x="-460" y="535" width="20" height="20" as="geometry" />
        </mxCell>
        <mxCell id="wF1ciALJRRrJ7pzbPHmN-149" value="" style="ellipse;whiteSpace=wrap;html=1;fillColor=#00CC00;" vertex="1" parent="1">
          <mxGeometry x="-635" y="535" width="20" height="20" as="geometry" />
        </mxCell>
        <mxCell id="wF1ciALJRRrJ7pzbPHmN-150" value="" style="ellipse;whiteSpace=wrap;html=1;fillColor=#FFFFFF;" vertex="1" parent="1">
          <mxGeometry x="-550" y="535" width="20" height="20" as="geometry" />
        </mxCell>
        <mxCell id="wF1ciALJRRrJ7pzbPHmN-151" value="" style="ellipse;whiteSpace=wrap;html=1;fillColor=#00CC00;" vertex="1" parent="1">
          <mxGeometry x="-587.5" y="475" width="20" height="20" as="geometry" />
        </mxCell>
        <mxCell id="wF1ciALJRRrJ7pzbPHmN-152" value="" style="endArrow=none;html=1;rounded=0;" edge="1" parent="1">
          <mxGeometry width="50" height="50" relative="1" as="geometry">
            <mxPoint x="-715" y="535" as="sourcePoint" />
            <mxPoint x="-577.5" y="495" as="targetPoint" />
          </mxGeometry>
        </mxCell>
        <mxCell id="wF1ciALJRRrJ7pzbPHmN-153" value="" style="endArrow=none;html=1;rounded=0;" edge="1" parent="1">
          <mxGeometry width="50" height="50" relative="1" as="geometry">
            <mxPoint x="-450" y="535" as="sourcePoint" />
            <mxPoint x="-577.5" y="495" as="targetPoint" />
          </mxGeometry>
        </mxCell>
        <mxCell id="wF1ciALJRRrJ7pzbPHmN-155" value="" style="endArrow=none;html=1;rounded=0;" edge="1" parent="1">
          <mxGeometry width="50" height="50" relative="1" as="geometry">
            <mxPoint x="-625" y="535" as="sourcePoint" />
            <mxPoint x="-577.5" y="495" as="targetPoint" />
          </mxGeometry>
        </mxCell>
        <mxCell id="wF1ciALJRRrJ7pzbPHmN-156" value="" style="endArrow=none;html=1;rounded=0;" edge="1" parent="1">
          <mxGeometry width="50" height="50" relative="1" as="geometry">
            <mxPoint x="-540" y="535" as="sourcePoint" />
            <mxPoint x="-577.5" y="495" as="targetPoint" />
          </mxGeometry>
        </mxCell>
        <mxCell id="wF1ciALJRRrJ7pzbPHmN-157" value="" style="endArrow=none;html=1;rounded=0;" edge="1" parent="1">
          <mxGeometry width="50" height="50" relative="1" as="geometry">
            <mxPoint x="-770" y="595" as="sourcePoint" />
            <mxPoint x="-715" y="555" as="targetPoint" />
          </mxGeometry>
        </mxCell>
        <mxCell id="wF1ciALJRRrJ7pzbPHmN-158" value="" style="endArrow=none;html=1;rounded=0;" edge="1" parent="1">
          <mxGeometry width="50" height="50" relative="1" as="geometry">
            <mxPoint x="-745" y="595" as="sourcePoint" />
            <mxPoint x="-715" y="555" as="targetPoint" />
          </mxGeometry>
        </mxCell>
        <mxCell id="wF1ciALJRRrJ7pzbPHmN-159" value="" style="endArrow=none;html=1;rounded=0;" edge="1" parent="1">
          <mxGeometry width="50" height="50" relative="1" as="geometry">
            <mxPoint x="-720" y="595" as="sourcePoint" />
            <mxPoint x="-715" y="555" as="targetPoint" />
          </mxGeometry>
        </mxCell>
        <mxCell id="wF1ciALJRRrJ7pzbPHmN-160" value="" style="endArrow=none;html=1;rounded=0;" edge="1" parent="1">
          <mxGeometry width="50" height="50" relative="1" as="geometry">
            <mxPoint x="-695" y="595" as="sourcePoint" />
            <mxPoint x="-715" y="555" as="targetPoint" />
          </mxGeometry>
        </mxCell>
        <mxCell id="wF1ciALJRRrJ7pzbPHmN-161" value="" style="endArrow=none;html=1;rounded=0;" edge="1" parent="1">
          <mxGeometry width="50" height="50" relative="1" as="geometry">
            <mxPoint x="-470" y="595" as="sourcePoint" />
            <mxPoint x="-450" y="555" as="targetPoint" />
          </mxGeometry>
        </mxCell>
        <mxCell id="wF1ciALJRRrJ7pzbPHmN-162" value="" style="endArrow=none;html=1;rounded=0;" edge="1" parent="1">
          <mxGeometry width="50" height="50" relative="1" as="geometry">
            <mxPoint x="-445" y="595" as="sourcePoint" />
            <mxPoint x="-450" y="555" as="targetPoint" />
          </mxGeometry>
        </mxCell>
        <mxCell id="wF1ciALJRRrJ7pzbPHmN-163" value="" style="endArrow=none;html=1;rounded=0;" edge="1" parent="1">
          <mxGeometry width="50" height="50" relative="1" as="geometry">
            <mxPoint x="-420" y="595" as="sourcePoint" />
            <mxPoint x="-450" y="555" as="targetPoint" />
          </mxGeometry>
        </mxCell>
        <mxCell id="wF1ciALJRRrJ7pzbPHmN-164" value="" style="endArrow=none;html=1;rounded=0;" edge="1" parent="1">
          <mxGeometry width="50" height="50" relative="1" as="geometry">
            <mxPoint x="-395" y="595" as="sourcePoint" />
            <mxPoint x="-450" y="555" as="targetPoint" />
          </mxGeometry>
        </mxCell>
        <mxCell id="wF1ciALJRRrJ7pzbPHmN-165" value="" style="endArrow=none;html=1;rounded=0;" edge="1" parent="1">
          <mxGeometry width="50" height="50" relative="1" as="geometry">
            <mxPoint x="-670" y="595" as="sourcePoint" />
            <mxPoint x="-625" y="555" as="targetPoint" />
          </mxGeometry>
        </mxCell>
        <mxCell id="wF1ciALJRRrJ7pzbPHmN-166" value="" style="endArrow=none;html=1;rounded=0;" edge="1" parent="1">
          <mxGeometry width="50" height="50" relative="1" as="geometry">
            <mxPoint x="-645" y="595" as="sourcePoint" />
            <mxPoint x="-625" y="555" as="targetPoint" />
          </mxGeometry>
        </mxCell>
        <mxCell id="wF1ciALJRRrJ7pzbPHmN-167" value="" style="endArrow=none;html=1;rounded=0;" edge="1" parent="1">
          <mxGeometry width="50" height="50" relative="1" as="geometry">
            <mxPoint x="-620" y="595" as="sourcePoint" />
            <mxPoint x="-625" y="555" as="targetPoint" />
          </mxGeometry>
        </mxCell>
        <mxCell id="wF1ciALJRRrJ7pzbPHmN-168" value="" style="endArrow=none;html=1;rounded=0;" edge="1" parent="1">
          <mxGeometry width="50" height="50" relative="1" as="geometry">
            <mxPoint x="-595" y="595" as="sourcePoint" />
            <mxPoint x="-625" y="555" as="targetPoint" />
          </mxGeometry>
        </mxCell>
        <mxCell id="wF1ciALJRRrJ7pzbPHmN-169" value="" style="endArrow=none;html=1;rounded=0;" edge="1" parent="1">
          <mxGeometry width="50" height="50" relative="1" as="geometry">
            <mxPoint x="-570" y="595" as="sourcePoint" />
            <mxPoint x="-540" y="555" as="targetPoint" />
          </mxGeometry>
        </mxCell>
        <mxCell id="wF1ciALJRRrJ7pzbPHmN-170" value="" style="endArrow=none;html=1;rounded=0;" edge="1" parent="1">
          <mxGeometry width="50" height="50" relative="1" as="geometry">
            <mxPoint x="-545" y="595" as="sourcePoint" />
            <mxPoint x="-540" y="555" as="targetPoint" />
          </mxGeometry>
        </mxCell>
        <mxCell id="wF1ciALJRRrJ7pzbPHmN-171" value="" style="endArrow=none;html=1;rounded=0;" edge="1" parent="1">
          <mxGeometry width="50" height="50" relative="1" as="geometry">
            <mxPoint x="-520" y="595" as="sourcePoint" />
            <mxPoint x="-540" y="555" as="targetPoint" />
          </mxGeometry>
        </mxCell>
        <mxCell id="wF1ciALJRRrJ7pzbPHmN-172" value="" style="endArrow=none;html=1;rounded=0;" edge="1" parent="1">
          <mxGeometry width="50" height="50" relative="1" as="geometry">
            <mxPoint x="-495" y="595" as="sourcePoint" />
            <mxPoint x="-540" y="555" as="targetPoint" />
          </mxGeometry>
        </mxCell>
        <mxCell id="wF1ciALJRRrJ7pzbPHmN-173" value="" style="rounded=0;whiteSpace=wrap;html=1;" vertex="1" parent="1">
          <mxGeometry x="-360" y="340" width="100" height="100" as="geometry" />
        </mxCell>
        <mxCell id="wF1ciALJRRrJ7pzbPHmN-185" value="" style="rounded=0;whiteSpace=wrap;html=1;" vertex="1" parent="1">
          <mxGeometry x="-655" y="595" width="20" height="20" as="geometry" />
        </mxCell>
        <mxCell id="wF1ciALJRRrJ7pzbPHmN-186" value="" style="rounded=0;whiteSpace=wrap;html=1;" vertex="1" parent="1">
          <mxGeometry x="-555" y="595" width="20" height="20" as="geometry" />
        </mxCell>
        <mxCell id="wF1ciALJRRrJ7pzbPHmN-187" value="" style="rounded=0;whiteSpace=wrap;html=1;" vertex="1" parent="1">
          <mxGeometry x="-530" y="595" width="20" height="20" as="geometry" />
        </mxCell>
        <mxCell id="wF1ciALJRRrJ7pzbPHmN-188" value="" style="rounded=0;whiteSpace=wrap;html=1;" vertex="1" parent="1">
          <mxGeometry x="-405" y="595" width="20" height="20" as="geometry" />
        </mxCell>
        <mxCell id="wF1ciALJRRrJ7pzbPHmN-191" value="" style="rounded=0;whiteSpace=wrap;html=1;" vertex="1" parent="1">
          <mxGeometry x="-360" y="440" width="50" height="50" as="geometry" />
        </mxCell>
        <mxCell id="wF1ciALJRRrJ7pzbPHmN-198" value="" style="rounded=0;whiteSpace=wrap;html=1;fillColor=#00CC00;" vertex="1" parent="1">
          <mxGeometry x="-210" y="490" width="50" height="50" as="geometry" />
        </mxCell>
        <mxCell id="wF1ciALJRRrJ7pzbPHmN-215" value="" style="rounded=0;whiteSpace=wrap;html=1;" vertex="1" parent="1">
          <mxGeometry x="-160" y="340" width="100" height="100" as="geometry" />
        </mxCell>
        <mxCell id="wF1ciALJRRrJ7pzbPHmN-216" value="" style="rounded=0;whiteSpace=wrap;html=1;" vertex="1" parent="1">
          <mxGeometry x="-60" y="340" width="100" height="100" as="geometry" />
        </mxCell>
        <mxCell id="wF1ciALJRRrJ7pzbPHmN-220" value="" style="rounded=0;whiteSpace=wrap;html=1;" vertex="1" parent="1">
          <mxGeometry x="-60" y="440" width="100" height="100" as="geometry" />
        </mxCell>
        <mxCell id="wF1ciALJRRrJ7pzbPHmN-223" value="" style="rounded=0;whiteSpace=wrap;html=1;fillColor=#00CC00;" vertex="1" parent="1">
          <mxGeometry x="-360" y="540" width="100" height="100" as="geometry" />
        </mxCell>
        <mxCell id="wF1ciALJRRrJ7pzbPHmN-226" value="" style="rounded=0;whiteSpace=wrap;html=1;" vertex="1" parent="1">
          <mxGeometry x="-60" y="540" width="100" height="100" as="geometry" />
        </mxCell>
        <mxCell id="wF1ciALJRRrJ7pzbPHmN-227" value="" style="rounded=0;whiteSpace=wrap;html=1;" vertex="1" parent="1">
          <mxGeometry x="-360" y="640" width="100" height="100" as="geometry" />
        </mxCell>
        <mxCell id="wF1ciALJRRrJ7pzbPHmN-228" value="" style="rounded=0;whiteSpace=wrap;html=1;" vertex="1" parent="1">
          <mxGeometry x="-260" y="640" width="100" height="100" as="geometry" />
        </mxCell>
        <mxCell id="wF1ciALJRRrJ7pzbPHmN-229" value="" style="rounded=0;whiteSpace=wrap;html=1;" vertex="1" parent="1">
          <mxGeometry x="-160" y="640" width="100" height="100" as="geometry" />
        </mxCell>
        <mxCell id="wF1ciALJRRrJ7pzbPHmN-230" value="" style="rounded=0;whiteSpace=wrap;html=1;" vertex="1" parent="1">
          <mxGeometry x="-60" y="640" width="100" height="100" as="geometry" />
        </mxCell>
        <mxCell id="wF1ciALJRRrJ7pzbPHmN-231" value="" style="rounded=0;whiteSpace=wrap;html=1;fillColor=#00CC00;" vertex="1" parent="1">
          <mxGeometry x="-260" y="490" width="50" height="50" as="geometry" />
        </mxCell>
        <mxCell id="wF1ciALJRRrJ7pzbPHmN-232" value="" style="rounded=0;whiteSpace=wrap;html=1;fillColor=#00CC00;" vertex="1" parent="1">
          <mxGeometry x="-210" y="440" width="50" height="50" as="geometry" />
        </mxCell>
        <mxCell id="wF1ciALJRRrJ7pzbPHmN-233" value="" style="rounded=0;whiteSpace=wrap;html=1;fillColor=#00CC00;" vertex="1" parent="1">
          <mxGeometry x="-160" y="440" width="50" height="50" as="geometry" />
        </mxCell>
        <mxCell id="wF1ciALJRRrJ7pzbPHmN-234" value="" style="rounded=0;whiteSpace=wrap;html=1;fillColor=#00CC00;" vertex="1" parent="1">
          <mxGeometry x="-110" y="440" width="50" height="50" as="geometry" />
        </mxCell>
        <mxCell id="wF1ciALJRRrJ7pzbPHmN-235" value="" style="rounded=0;whiteSpace=wrap;html=1;fillColor=#00CC00;" vertex="1" parent="1">
          <mxGeometry x="-110" y="490" width="50" height="50" as="geometry" />
        </mxCell>
        <mxCell id="wF1ciALJRRrJ7pzbPHmN-236" value="" style="rounded=0;whiteSpace=wrap;html=1;fillColor=#00CC00;" vertex="1" parent="1">
          <mxGeometry x="-110" y="540" width="50" height="50" as="geometry" />
        </mxCell>
        <mxCell id="wF1ciALJRRrJ7pzbPHmN-237" value="" style="rounded=0;whiteSpace=wrap;html=1;fillColor=#00CC00;" vertex="1" parent="1">
          <mxGeometry x="-160" y="590" width="50" height="50" as="geometry" />
        </mxCell>
        <mxCell id="wF1ciALJRRrJ7pzbPHmN-238" value="" style="rounded=0;whiteSpace=wrap;html=1;fillColor=#00CC00;" vertex="1" parent="1">
          <mxGeometry x="-210" y="590" width="50" height="50" as="geometry" />
        </mxCell>
        <mxCell id="wF1ciALJRRrJ7pzbPHmN-239" value="" style="rounded=0;whiteSpace=wrap;html=1;fillColor=#00CC00;" vertex="1" parent="1">
          <mxGeometry x="-260" y="590" width="50" height="50" as="geometry" />
        </mxCell>
        <mxCell id="wF1ciALJRRrJ7pzbPHmN-240" value="" style="rounded=0;whiteSpace=wrap;html=1;fillColor=#00CC00;" vertex="1" parent="1">
          <mxGeometry x="-260" y="540" width="50" height="50" as="geometry" />
        </mxCell>
        <mxCell id="wF1ciALJRRrJ7pzbPHmN-243" value="" style="rounded=0;whiteSpace=wrap;html=1;fillColor=#00CC00;" vertex="1" parent="1">
          <mxGeometry x="-210" y="540" width="50" height="50" as="geometry" />
        </mxCell>
        <mxCell id="wF1ciALJRRrJ7pzbPHmN-244" value="" style="rounded=0;whiteSpace=wrap;html=1;fillColor=#00CC00;" vertex="1" parent="1">
          <mxGeometry x="-160" y="540" width="50" height="50" as="geometry" />
        </mxCell>
        <mxCell id="wF1ciALJRRrJ7pzbPHmN-245" value="" style="rounded=0;whiteSpace=wrap;html=1;fillColor=#00CC00;" vertex="1" parent="1">
          <mxGeometry x="-160" y="490" width="50" height="50" as="geometry" />
        </mxCell>
        <mxCell id="wF1ciALJRRrJ7pzbPHmN-246" value="" style="rounded=0;whiteSpace=wrap;html=1;fillColor=#00CC00;" vertex="1" parent="1">
          <mxGeometry x="-110" y="590" width="50" height="50" as="geometry" />
        </mxCell>
        <mxCell id="wF1ciALJRRrJ7pzbPHmN-247" value="" style="rounded=0;whiteSpace=wrap;html=1;fillColor=#00CC00;" vertex="1" parent="1">
          <mxGeometry x="-260" y="440" width="50" height="50" as="geometry" />
        </mxCell>
        <mxCell id="wF1ciALJRRrJ7pzbPHmN-248" value="" style="rounded=0;whiteSpace=wrap;html=1;" vertex="1" parent="1">
          <mxGeometry x="-310" y="440" width="50" height="50" as="geometry" />
        </mxCell>
        <mxCell id="wF1ciALJRRrJ7pzbPHmN-249" value="" style="rounded=0;whiteSpace=wrap;html=1;" vertex="1" parent="1">
          <mxGeometry x="-360" y="490" width="50" height="50" as="geometry" />
        </mxCell>
        <mxCell id="wF1ciALJRRrJ7pzbPHmN-250" value="" style="rounded=0;whiteSpace=wrap;html=1;fillColor=#00CC00;" vertex="1" parent="1">
          <mxGeometry x="-310" y="490" width="50" height="50" as="geometry" />
        </mxCell>
        <mxCell id="wF1ciALJRRrJ7pzbPHmN-251" value="" style="rounded=0;whiteSpace=wrap;html=1;" vertex="1" parent="1">
          <mxGeometry x="-260" y="340" width="50" height="50" as="geometry" />
        </mxCell>
        <mxCell id="wF1ciALJRRrJ7pzbPHmN-252" value="" style="rounded=0;whiteSpace=wrap;html=1;" vertex="1" parent="1">
          <mxGeometry x="-210" y="340" width="50" height="50" as="geometry" />
        </mxCell>
        <mxCell id="wF1ciALJRRrJ7pzbPHmN-253" value="" style="rounded=0;whiteSpace=wrap;html=1;" vertex="1" parent="1">
          <mxGeometry x="-210" y="390" width="50" height="50" as="geometry" />
        </mxCell>
        <mxCell id="wF1ciALJRRrJ7pzbPHmN-254" value="" style="rounded=0;whiteSpace=wrap;html=1;fillColor=#00CC00;" vertex="1" parent="1">
          <mxGeometry x="-260" y="390" width="50" height="50" as="geometry" />
        </mxCell>
        <mxCell id="wF1ciALJRRrJ7pzbPHmN-255" value="" style="rounded=0;whiteSpace=wrap;html=1;" vertex="1" parent="1">
          <mxGeometry x="-780" y="595" width="20" height="20" as="geometry" />
        </mxCell>
        <mxCell id="wF1ciALJRRrJ7pzbPHmN-256" value="" style="rounded=0;whiteSpace=wrap;html=1;" vertex="1" parent="1">
          <mxGeometry x="-680" y="595" width="20" height="20" as="geometry" />
        </mxCell>
        <mxCell id="wF1ciALJRRrJ7pzbPHmN-257" value="" style="rounded=0;whiteSpace=wrap;html=1;" vertex="1" parent="1">
          <mxGeometry x="-630" y="595" width="20" height="20" as="geometry" />
        </mxCell>
        <mxCell id="wF1ciALJRRrJ7pzbPHmN-258" value="" style="rounded=0;whiteSpace=wrap;html=1;" vertex="1" parent="1">
          <mxGeometry x="-505" y="595" width="20" height="20" as="geometry" />
        </mxCell>
        <mxCell id="wF1ciALJRRrJ7pzbPHmN-259" value="" style="rounded=0;whiteSpace=wrap;html=1;" vertex="1" parent="1">
          <mxGeometry x="-430" y="595" width="20" height="20" as="geometry" />
        </mxCell>
        <mxCell id="wF1ciALJRRrJ7pzbPHmN-260" value="" style="rounded=0;whiteSpace=wrap;html=1;fillColor=#00CC00;" vertex="1" parent="1">
          <mxGeometry x="-480" y="595" width="20" height="20" as="geometry" />
        </mxCell>
      </root>
    </mxGraphModel>
  </diagram>
</mxfile>
